<svg viewBox="0 0 291 33">
    <path d="M11.976 25.1l1.08-2.34-10.044-6.156 10.044-6.12-1.008-2.376L.492 15.236v2.736L11.976 25.1zM29.724 5.876c1.188 0 1.872-.648 1.872-1.908 0-1.188-.684-1.836-1.872-1.836-1.188 0-1.872.648-1.872 1.836 0 1.26.648 1.908 1.872 1.908zM25.296 32.3c3.024 0 5.94-2.268 5.94-6.3l.036-17.1h-6.12v1.908l3.528.18V26c0 2.556-1.62 3.78-3.348 3.78-1.404 0-2.844-.756-3.6-2.484l-2.268 1.008c1.296 2.844 3.6 3.996 5.832 3.996zm20.484-5.868c2.412-.036 4.464-1.044 5.328-2.52 0 .756-.396 1.692-.648 2.088h3.204v-9.792c0-4.536-3.24-7.776-7.776-7.776-2.484 0-4.824 1.044-6.516 2.88l1.548 1.836c1.908-1.836 3.528-2.412 5.076-2.412 3.024 0 5.112 2.232 5.112 5.472v.216c-.612-.036-1.224-.036-1.8-.036-6.876 0-10.296 1.764-10.296 5.184 0 3.168 2.988 4.86 6.768 4.86zm-.468-2.16c-2.016 0-3.708-.936-3.708-2.7 0-2.124 2.412-2.952 7.596-2.952.612 0 1.26 0 1.908.036v2.772c-1.368 1.908-3.744 2.844-5.796 2.844zM71.772 26c-.154-.525-.176-1.128-.18-1.698v-.39h-5.076v-9.828c.576-2.556 3.816-3.96 6.732-2.376l1.584-2.484c-1.86-.723-2.533-.788-3.155-.792h-.085c-1.332 0-4.032.216-5.22 2.484 0-.396.252-1.692.468-2.016h-6.3v1.908l3.492.18v12.924H58.74V26h13.032zm10.044 0V13.652c.756-1.512 1.836-2.664 3.888-2.664 3.024 0 4.788 2.448 4.788 5.472V26h2.88c-.154-.525-.176-1.128-.18-1.698v-7.194c0-4.284-1.8-8.676-6.228-8.676-2.008 0-4.182.899-5.05 2.312l-.098.172c.036-.756.396-1.656.648-2.016H79.26V26h2.556zm24.336.468c2.52 0 4.86-1.08 6.516-2.88l-1.512-1.872c-1.944 1.872-3.564 2.412-5.076 2.412-3.024 0-5.148-2.232-5.148-5.436l12.204-.072.036-1.476c.216-5.544-2.304-8.712-7.164-8.712-4.896 0-7.452 3.204-7.596 8.712v1.548c0 4.536 3.24 7.776 7.74 7.776zm4.32-10.08h-9.504c.144-3.528 1.476-5.724 4.788-5.724 3.312 0 4.896 2.052 4.716 5.724zm15.48 10.08c4.14 0 6.84-2.304 6.84-5.508 0-2.592-1.764-3.924-6.084-4.752-3.276-.612-4.788-1.404-4.788-2.772 0-1.548 1.872-2.664 4.5-2.664 1.872 0 3.132.576 4.536 2.052l1.62-1.62c-1.26-1.8-3.564-2.772-6.444-2.772-3.96 0-6.624 2.016-6.624 5.076 0 2.664 2.052 4.212 6.984 5.22 2.988.576 3.888 1.116 3.888 2.268 0 1.692-2.052 3.168-4.392 3.168-2.016 0-3.816-1.116-5.472-3.06l-1.728 1.764c1.764 2.34 4.104 3.6 7.164 3.6zm22.572-20.592c1.188 0 1.872-.648 1.872-1.908 0-1.188-.684-1.836-1.872-1.836-1.188 0-1.872.648-1.872 1.836 0 1.26.648 1.908 1.872 1.908zM144.096 32.3c3.024 0 5.94-2.268 5.94-6.3l.036-17.1h-6.12v1.908l3.528.18V26c0 2.556-1.62 3.78-3.348 3.78-1.404 0-2.844-.756-3.6-2.484l-2.268 1.008c1.296 2.844 3.6 3.996 5.832 3.996zm21.168-5.832c4.788 0 7.92-3.672 7.92-9.18 0-5.4-3.132-8.856-7.92-8.856-4.824 0-7.848 3.384-7.848 8.856 0 5.58 3.096 9.18 7.848 9.18zm0-2.196c-3.024 0-4.86-2.664-4.86-6.984s1.836-6.732 4.86-6.768c3.168-.036 5.004 2.376 5.004 6.768 0 4.392-1.836 6.984-5.004 6.984zm19.836 2.196c1.188 0 1.872-.684 1.872-1.908 0-1.188-.684-1.872-1.872-1.872-1.188 0-1.908.684-1.908 1.872 0 1.224.684 1.908 1.908 1.908zm19.764-.036c3.924 0 6.84-2.088 7.488-5.364l-2.916-.432c-.432 2.232-2.088 3.42-4.572 3.42-3.168 0-4.86-2.088-4.86-6.048 0-4.464 1.512-7.2 4.86-7.2 1.98 0 3.78 1.152 4.392 3.132l2.808-.792c-.9-2.844-3.888-4.716-7.2-4.716-5.184 0-7.704 4.14-7.704 9.576 0 5.328 2.772 8.424 7.704 8.424zm19.8.036c4.788 0 7.92-3.672 7.92-9.18 0-5.4-3.132-8.856-7.92-8.856-4.824 0-7.848 3.384-7.848 8.856 0 5.58 3.096 9.18 7.848 9.18zm0-2.196c-3.024 0-4.86-2.664-4.86-6.984s1.836-6.732 4.86-6.768c3.168-.036 5.004 2.376 5.004 6.768 0 4.392-1.836 6.984-5.004 6.984zM239.496 26c-.154-.525-.176-1.128-.18-1.698V13.148c.72-1.44 1.26-2.16 2.196-2.16 1.26 0 1.98 1.08 1.98 2.412V26h2.412V14.048c0-.36 0-.648-.036-.936.792-1.8 1.44-2.448 2.232-2.448 1.296 0 1.98 1.116 1.98 2.448V26h2.412V13.724c0-3.024-.684-5.292-3.708-5.292-1.944 0-2.664.792-3.312 2.556v.144c-.54-1.62-1.62-2.7-3.276-2.7-1.44 0-2.196.54-2.88 2.016V8.9h-2.556V26h2.736zm18.9 4.104l13.68-28.188-1.872-1.152-13.644 28.188 1.836 1.152zm20.628-5.004l11.448-7.128v-2.736l-11.52-7.128-1.008 2.376 10.044 6.12-10.044 6.156 1.08 2.34z" fill="#EF4444" fill-rule="nonzero"/>
</svg>
